<?xml version="1.0" encoding="UTF-8"?>
<!DOCTYPE svg  PUBLIC '-//W3C//DTD SVG 1.1//EN'  'http://www.w3.org/Graphics/SVG/1.1/DTD/svg11.dtd'>
<svg clip-rule="evenodd" fill-rule="evenodd" stroke-linejoin="round" stroke-miterlimit="2" version="1.1" viewBox="0 0 504 491" xml:space="preserve" xmlns="http://www.w3.org/2000/svg"><path d="m251.62 0c-138.95 0-251.62 112.65-251.62 251.62 0 111.17 72.096 205.48 172.07 238.75 12.575 2.329 17.191-5.459 17.191-12.104 0-5.996-0.233-25.821-0.341-46.846-70 15.221-84.771-29.688-84.771-29.688-11.446-29.079-27.938-36.816-27.938-36.816-22.829-15.617 1.721-15.296 1.721-15.296 25.267 1.775 38.571 25.933 38.571 25.933 22.442 38.463 58.863 27.342 73.221 20.913 2.262-16.259 8.779-27.363 15.975-33.646-55.888-6.359-114.64-27.938-114.64-124.35 0-27.467 9.83-49.917 25.925-67.538-2.612-6.337-11.225-31.929 2.442-66.587 0 0 21.129-6.759 69.208 25.796 20.071-5.575 41.596-8.371 62.98-8.471 21.383 0.1 42.925 2.896 63.033 8.471 48.025-32.555 69.125-25.796 69.125-25.796 13.696 34.658 5.083 60.25 2.471 66.587 16.133 17.621 25.891 40.071 25.891 67.538 0 96.646-58.862 117.92-114.89 124.15 9.025 7.808 17.066 23.121 17.066 46.596 0 33.666-0.287 60.762-0.287 69.05 0 6.7 4.525 14.541 17.279 12.075 99.925-33.309 171.93-127.59 171.93-238.72 0-138.97-112.65-251.62-251.62-251.62" fill="#413c69"/></svg>
